name C:\Users\r0593348\3dpredictsim\Results\Batchsim_tmt_linear_v2\Pog_s1_tmt_bCst_d00_k500_ig24_pas.mot
datacolumns 128
datarows 4
range 1.66947416 1.70286364
endheader
time	pelvis_tilt	pelvis_list	pelvis_rotation	pelvis_tx	pelvis_ty	pelvis_tz	hip_flexion_l	hip_adduction_l	hip_rotation_l	hip_flexion_r	hip_adduction_r	hip_rotation_r	knee_angle_l	knee_angle_r	ankle_angle_l	ankle_angle_r	subtalar_angle_l	subtalar_angle_r	tmt_angle_l	tmt_angle_r	mtp_angle_l	mtp_angle_r	lumbar_extension	lumbar_bending	lumbar_rotation	arm_flex_l	arm_add_l	arm_rot_l	arm_flex_r	arm_add_r	arm_rot_r	elbow_flex_l	elbow_flex_r	pro_sup_l	pro_sup_r	glut_med1_l/activation	glut_med2_l/activation	glut_med3_l/activation	glut_min1_l/activation	glut_min2_l/activation	glut_min3_l/activation	semimem_l/activation	semiten_l/activation	bifemlh_l/activation	bifemsh_l/activation	sar_l/activation	add_long_l/activation	add_brev_l/activation	add_mag1_l/activation	add_mag2_l/activation	add_mag3_l/activation	tfl_l/activation	pect_l/activation	grac_l/activation	glut_max1_l/activation	glut_max2_l/activation	glut_max3_l/activation	iliacus_l/activation	psoas_l/activation	quad_fem_l/activation	gem_l/activation	peri_l/activation	rect_fem_l/activation	vas_med_l/activation	vas_int_l/activation	vas_lat_l/activation	med_gas_l/activation	lat_gas_l/activation	soleus_l/activation	tib_post_l/activation	flex_dig_l/activation	flex_hal_l/activation	tib_ant_l/activation	per_brev_l/activation	per_long_l/activation	per_tert_l/activation	ext_dig_l/activation	ext_hal_l/activation	ercspn_l/activation	intobl_l/activation	extobl_l/activation	glut_med1_r/activation	glut_med2_r/activation	glut_med3_r/activation	glut_min1_r/activation	glut_min2_r/activation	glut_min3_r/activation	semimem_r/activation	semiten_r/activation	bifemlh_r/activation	bifemsh_r/activation	sar_r/activation	add_long_r/activation	add_brev_r/activation	add_mag1_r/activation	add_mag2_r/activation	add_mag3_r/activation	tfl_r/activation	pect_r/activation	grac_r/activation	glut_max1_r/activation	glut_max2_r/activation	glut_max3_r/activation	iliacus_r/activation	psoas_r/activation	quad_fem_r/activation	gem_r/activation	peri_r/activation	rect_fem_r/activation	vas_med_r/activation	vas_int_r/activation	vas_lat_r/activation	med_gas_r/activation	lat_gas_r/activation	soleus_r/activation	tib_post_r/activation	flex_dig_r/activation	flex_hal_r/activation	tib_ant_r/activation	per_brev_r/activation	per_long_r/activation	per_tert_r/activation	ext_dig_r/activation	ext_hal_r/activation	ercspn_r/activation	intobl_r/activation	extobl_r/activation	
          1.66947416	         -2.90098430	         -1.13413729	         -5.54763383	          2.08684270	          0.87028634	          0.00347489	         27.82405097	         -0.70317296	         -1.55601195	        -17.70407442	          1.38738591	          8.26160037	         -9.44280661	         -7.75611226	          6.52495782	        -10.67186236	          3.01738081	          8.98271644	          0.06302365	          2.08215354	         -0.08102159	         28.27119288	          0.28663647	          3.11878672	          1.78664481	        -10.81601174	        -13.49760569	          9.68470850	          2.85162753	        -13.48584917	         11.53761087	         19.43862194	         32.84370088	         86.51662706	         86.51662706	          0.07272567	          0.05000182	          0.12833389	          0.05000061	          0.05000082	          0.05001502	          0.07027016	          0.07026992	          0.07027029	          0.06765390	          0.05000713	          0.05684953	          0.10129527	          0.07214728	          0.08664330	          0.13160850	          0.05000166	          0.05002564	          0.07026823	          0.05927425	          0.09790340	          0.13919407	          0.05000056	          0.05040267	          0.08624292	          0.05000091	          0.05000467	          0.05000028	          0.05000111	          0.05000165	          0.05000091	          0.06888324	          0.05000019	          0.05000001	          0.05748869	          0.05927513	          0.05000652	          0.45206803	          0.28858874	          0.19858683	          0.13039364	          0.48291637	          0.25508794	          0.05227644	          0.12746531	          0.12283571	          0.27533839	          0.09875818	          0.05000821	          0.27082310	          0.17689436	          0.09875705	          0.05000144	          0.05000024	          0.05000023	          0.05000035	          0.07913589	          0.09838625	          0.05000044	          0.05000060	          0.05000163	          0.05000083	          0.24453298	          0.05968735	          0.05000075	          0.05000269	          0.05000154	          0.05000115	          0.29841221	          0.56119384	          0.05000022	          0.05000140	          0.05000117	          0.20905735	          0.05000709	          0.13877112	          0.13126662	          0.17527277	          0.25745807	          0.20024330	          0.19356424	          0.21599582	          0.25587074	          0.05000001	          0.11553632	          0.16704690	          0.05000014	          0.05000003	          0.05000012	          0.05000003	          0.05000003	          0.05000007	
          1.68060399	         -2.87414144	         -1.13905233	         -5.69560624	          2.10471248	          0.86899768	          0.00327444	         27.36155290	         -0.45832946	         -1.32056803	        -17.30860770	          1.22598987	          7.96295136	         -9.51989510	        -10.28888365	          5.95582081	        -11.46115122	          2.56052161	         10.30414936	          0.06848267	          1.80996092	         -0.05260045	         28.84645334	          0.53789614	          2.87765847	          1.85321039	        -12.12527458	        -13.49717743	          9.40730136	          2.51186856	        -13.52570742	         11.88279883	         19.48302147	         33.84738236	         86.51662706	         86.51662706	          0.06134675	          0.05000224	          0.18464421	          0.05927495	          0.05927480	          0.05000214	          0.05927489	          0.05927476	          0.05927502	          0.05927468	          0.05927378	          0.09875765	          0.14130330	          0.23456354	          0.18611234	          0.15439827	          0.05000025	          0.05928820	          0.05927458	          0.05000059	          0.08258454	          0.20620673	          0.05927489	          0.05927441	          0.07274847	          0.16258150	          0.12799520	          0.07678198	          0.23226205	          0.25306811	          0.19120309	          0.05810519	          0.05577514	          0.05927510	          0.05000009	          0.05000073	          0.05001758	          0.61573877	          0.31662790	          0.17474459	          0.50079179	          0.57528661	          0.41661410	          0.05000005	          0.10752057	          0.10361537	          0.23225569	          0.08330534	          0.05000015	          0.22844697	          0.14921542	          0.08330444	          0.05000199	          0.05000023	          0.05000016	          0.05000029	          0.06675353	          0.16200374	          0.29457171	          0.06998194	          0.05000996	          0.05000091	          0.20627051	          0.11099279	          0.05523620	          0.05000251	          0.05000159	          0.05000167	          0.25171909	          0.47338293	          0.05000857	          0.05000140	          0.05000033	          0.17634574	          0.11484217	          0.11705837	          0.11072805	          0.14784749	          0.21717311	          0.16891083	          0.16327690	          0.18219874	          0.21583424	          0.05000009	          0.09745824	          0.14090883	          0.05000025	          0.06694037	          0.05000067	          0.05108216	          0.05730302	          0.08330368	
          1.69173382	         -2.84058420	         -1.12741723	         -5.81332948	          2.12276204	          0.86737872	          0.00306903	         26.79058922	         -0.21843405	         -1.04890452	        -16.81230236	          1.06830095	          7.65717377	        -10.07946594	        -13.02235282	          5.05608959	        -12.08045473	          2.09551170	         11.56634645	          0.05592032	          1.42820329	         -0.02579288	         28.76725305	          0.79667043	          2.60731876	          1.90992682	        -13.40754972	        -13.51089240	          9.22765268	          2.12274263	        -13.57832359	         12.19160277	         19.47463951	         34.83495778	         86.51662706	         86.51662706	          0.18261592	          0.05000050	          0.20209023	          0.05000019	          0.05000020	          0.05000044	          0.05000008	          0.05000012	          0.05000018	          0.05000003	          0.05000018	          0.08330501	          0.11919359	          0.26381239	          0.25593340	          0.16470997	          0.05927393	          0.05001247	          0.05000047	          0.12120446	          0.14456951	          0.18378432	          0.05000011	          0.05000014	          0.21649293	          0.13714217	          0.10796766	          0.07027022	          0.35772514	          0.36662462	          0.29755583	          0.05000004	          0.05000014	          0.05000021	          0.05000149	          0.05927518	          0.05927489	          0.58520943	          0.38729484	          0.19826906	          0.46887744	          0.55304740	          0.35142575	          0.05000001	          0.09069661	          0.08740247	          0.19591421	          0.07027044	          0.05927503	          0.19270150	          0.12586745	          0.07026975	          0.05000616	          0.05000059	          0.05927097	          0.05000006	          0.05630860	          0.20771784	          0.49794303	          0.31600733	          0.10800004	          0.16453819	          0.17399502	          0.09362594	          0.05000054	          0.05927363	          0.05927767	          0.07022136	          0.21233212	          0.39931186	          0.05941650	          0.05929495	          0.05927516	          0.14875258	          0.09875766	          0.09875778	          0.09875751	          0.12471351	          0.18319162	          0.14248102	          0.13772868	          0.15368992	          0.18206232	          0.07809674	          0.08220903	          0.11886069	          0.05000108	          0.19613198	          0.13106989	          0.05725314	          0.07027024	          0.07026916	
          1.70286364	         -2.80305199	         -1.10363690	         -5.90291588	          2.14080601	          0.86543316	          0.00288402	         26.02762895	         -0.00528214	         -0.72853547	        -16.21103207	          0.92417927	          7.34592007	        -10.79820205	        -15.93843521	          4.40243728	        -12.39739129	          1.58955569	         12.72729571	         -0.02420790	          0.98234774	         -0.19394427	         27.65732474	          1.04654042	          2.31457771	          1.95531310	        -14.62499286	        -13.54342150	          9.17383971	          1.71696412	        -13.63976622	         12.47548829	         19.38588332	         35.79643315	         86.51662706	         86.51662706	          0.27585290	          0.28291930	          0.43215453	          0.28390223	          0.15827046	          0.26878050	          0.07142836	          0.09462987	          0.07923604	          0.08330506	          0.05927581	          0.07027021	          0.10054323	          0.22253326	          0.21588726	          0.16646319	          0.05000034	          0.05928362	          0.08330888	          0.15963656	          0.18603558	          0.18129941	          0.05927474	          0.05000226	          0.18261795	          0.11568366	          0.30839448	          0.05927491	          0.30175122	          0.30925819	          0.25099672	          0.05000012	          0.05000017	          0.05000002	          0.05000001	          0.05000041	          0.05000022	          0.65585567	          0.32669438	          0.16724557	          0.69510546	          0.65783104	          0.43725204	          0.05156468	          0.07650530	          0.07372644	          0.21328245	          0.05927514	          0.05000024	          0.16255371	          0.10617288	          0.05927469	          0.05015452	          0.05000086	          0.05000059	          0.05000197	          0.06970562	          0.17521599	          0.42002901	          0.26656116	          0.09110153	          0.13879272	          0.14676990	          0.07897702	          0.05927417	          0.05000237	          0.05000300	          0.05923396	          0.17910816	          0.35927857	          0.05011957	          0.05001717	          0.05000040	          0.12547697	          0.08330488	          0.08330498	          0.08330474	          0.10519934	          0.15452728	          0.12018673	          0.11617805	          0.12964194	          0.15357477	          0.10422302	          0.08436924	          0.10026241	          0.15851455	          0.26785425	          0.22903378	          0.08808311	          0.05927492	          0.05927404	
